<mxfile host="app.diagrams.net" modified="2024-06-06T10:39:27.130Z" agent="Mozilla/5.0 (Macintosh; Intel Mac OS X 10_15_7) AppleWebKit/537.36 (KHTML, like Gecko) Chrome/125.0.0.0 Safari/537.36" etag="MinH7F8fchGCZs7i04dj" version="24.4.14" type="device">
  <diagram id="R2lEEEUBdFMjLlhIrx00" name="Page-1">
    <mxGraphModel dx="1706" dy="784" grid="1" gridSize="12" guides="1" tooltips="1" connect="1" arrows="1" fold="1" page="1" pageScale="1" pageWidth="3000" pageHeight="3000" background="none" math="0" shadow="0" extFonts="Permanent Marker^https://fonts.googleapis.com/css?family=Permanent+Marker">
      <root>
        <mxCell id="0" />
        <mxCell id="1" parent="0" />
        <mxCell id="BvTbpLr7_MJ0B1_TZpMT-5" value="client" style="whiteSpace=wrap;html=1;align=center;" parent="1" vertex="1">
          <mxGeometry x="813" y="1224" width="122" height="53.75" as="geometry" />
        </mxCell>
        <mxCell id="BvTbpLr7_MJ0B1_TZpMT-15" value="Name" style="ellipse;whiteSpace=wrap;html=1;align=center;" parent="1" vertex="1">
          <mxGeometry x="625" y="1181.25" width="100" height="42.75" as="geometry" />
        </mxCell>
        <mxCell id="BvTbpLr7_MJ0B1_TZpMT-20" value="Gender" style="ellipse;whiteSpace=wrap;html=1;align=center;" parent="1" vertex="1">
          <mxGeometry x="609" y="1252.25" width="100" height="41.75" as="geometry" />
        </mxCell>
        <mxCell id="BvTbpLr7_MJ0B1_TZpMT-21" value="DOB" style="ellipse;whiteSpace=wrap;html=1;align=center;" parent="1" vertex="1">
          <mxGeometry x="600" y="1332.5" width="118" height="39" as="geometry" />
        </mxCell>
        <mxCell id="BvTbpLr7_MJ0B1_TZpMT-22" value="Phone" style="ellipse;whiteSpace=wrap;html=1;align=center;" parent="1" vertex="1">
          <mxGeometry x="725" y="1368.75" width="110" height="39.75" as="geometry" />
        </mxCell>
        <mxCell id="BvTbpLr7_MJ0B1_TZpMT-23" value="Address" style="ellipse;whiteSpace=wrap;html=1;align=center;" parent="1" vertex="1">
          <mxGeometry x="719" y="1120" width="106" height="49.75" as="geometry" />
        </mxCell>
        <mxCell id="BvTbpLr7_MJ0B1_TZpMT-28" value="" style="endArrow=none;html=1;rounded=0;entryX=0.5;entryY=0;entryDx=0;entryDy=0;exitX=0.25;exitY=1;exitDx=0;exitDy=0;" parent="1" source="BvTbpLr7_MJ0B1_TZpMT-5" target="BvTbpLr7_MJ0B1_TZpMT-21" edge="1">
          <mxGeometry relative="1" as="geometry">
            <mxPoint x="909" y="1291.75" as="sourcePoint" />
            <mxPoint x="1069" y="1291.75" as="targetPoint" />
          </mxGeometry>
        </mxCell>
        <mxCell id="BvTbpLr7_MJ0B1_TZpMT-29" value="" style="endArrow=none;html=1;rounded=0;entryX=0.5;entryY=0;entryDx=0;entryDy=0;exitX=0.5;exitY=1;exitDx=0;exitDy=0;" parent="1" source="BvTbpLr7_MJ0B1_TZpMT-5" target="BvTbpLr7_MJ0B1_TZpMT-22" edge="1">
          <mxGeometry relative="1" as="geometry">
            <mxPoint x="939" y="1291.75" as="sourcePoint" />
            <mxPoint x="929" y="1331.75" as="targetPoint" />
          </mxGeometry>
        </mxCell>
        <mxCell id="BvTbpLr7_MJ0B1_TZpMT-30" value="" style="endArrow=none;html=1;rounded=0;entryX=1;entryY=0.5;entryDx=0;entryDy=0;exitX=0;exitY=0.75;exitDx=0;exitDy=0;" parent="1" source="BvTbpLr7_MJ0B1_TZpMT-5" target="BvTbpLr7_MJ0B1_TZpMT-20" edge="1">
          <mxGeometry relative="1" as="geometry">
            <mxPoint x="879" y="1261.75" as="sourcePoint" />
            <mxPoint x="869" y="1301.75" as="targetPoint" />
          </mxGeometry>
        </mxCell>
        <mxCell id="BvTbpLr7_MJ0B1_TZpMT-31" value="" style="endArrow=none;html=1;rounded=0;entryX=0.75;entryY=0;entryDx=0;entryDy=0;exitX=0.5;exitY=1;exitDx=0;exitDy=0;" parent="1" source="BvTbpLr7_MJ0B1_TZpMT-34" target="BvTbpLr7_MJ0B1_TZpMT-5" edge="1">
          <mxGeometry relative="1" as="geometry">
            <mxPoint x="929" y="1211.75" as="sourcePoint" />
            <mxPoint x="919" y="1251.75" as="targetPoint" />
          </mxGeometry>
        </mxCell>
        <mxCell id="BvTbpLr7_MJ0B1_TZpMT-32" value="" style="endArrow=none;html=1;rounded=0;entryX=0.25;entryY=0;entryDx=0;entryDy=0;exitX=1;exitY=1;exitDx=0;exitDy=0;" parent="1" source="BvTbpLr7_MJ0B1_TZpMT-23" target="BvTbpLr7_MJ0B1_TZpMT-5" edge="1">
          <mxGeometry relative="1" as="geometry">
            <mxPoint x="859" y="1191.75" as="sourcePoint" />
            <mxPoint x="849" y="1231.75" as="targetPoint" />
          </mxGeometry>
        </mxCell>
        <mxCell id="BvTbpLr7_MJ0B1_TZpMT-33" value="" style="endArrow=none;html=1;rounded=0;entryX=0;entryY=0.25;entryDx=0;entryDy=0;exitX=1;exitY=0.5;exitDx=0;exitDy=0;" parent="1" source="BvTbpLr7_MJ0B1_TZpMT-15" target="BvTbpLr7_MJ0B1_TZpMT-5" edge="1">
          <mxGeometry relative="1" as="geometry">
            <mxPoint x="824" y="1261.75" as="sourcePoint" />
            <mxPoint x="814" y="1301.75" as="targetPoint" />
          </mxGeometry>
        </mxCell>
        <mxCell id="BvTbpLr7_MJ0B1_TZpMT-34" value="ID" style="ellipse;whiteSpace=wrap;html=1;align=center;fontStyle=4;" parent="1" vertex="1">
          <mxGeometry x="945" y="1172.75" width="79" height="29" as="geometry" />
        </mxCell>
        <mxCell id="BvTbpLr7_MJ0B1_TZpMT-36" value="own" style="shape=rhombus;perimeter=rhombusPerimeter;whiteSpace=wrap;html=1;align=center;" parent="1" vertex="1">
          <mxGeometry x="835" y="996.5" width="100" height="40" as="geometry" />
        </mxCell>
        <mxCell id="BvTbpLr7_MJ0B1_TZpMT-38" value="vehicle" style="whiteSpace=wrap;html=1;align=center;" parent="1" vertex="1">
          <mxGeometry x="825" y="844.13" width="100" height="40" as="geometry" />
        </mxCell>
        <mxCell id="BvTbpLr7_MJ0B1_TZpMT-39" value="" style="endArrow=none;html=1;rounded=0;entryX=0.5;entryY=1;entryDx=0;entryDy=0;exitX=0.5;exitY=0;exitDx=0;exitDy=0;" parent="1" source="BvTbpLr7_MJ0B1_TZpMT-36" target="BvTbpLr7_MJ0B1_TZpMT-38" edge="1">
          <mxGeometry relative="1" as="geometry">
            <mxPoint x="957" y="899" as="sourcePoint" />
            <mxPoint x="1117" y="899" as="targetPoint" />
          </mxGeometry>
        </mxCell>
        <mxCell id="BvTbpLr7_MJ0B1_TZpMT-40" value="N" style="resizable=0;html=1;whiteSpace=wrap;align=right;verticalAlign=bottom;" parent="BvTbpLr7_MJ0B1_TZpMT-39" connectable="0" vertex="1">
          <mxGeometry x="1" relative="1" as="geometry">
            <mxPoint x="17" y="34" as="offset" />
          </mxGeometry>
        </mxCell>
        <mxCell id="BvTbpLr7_MJ0B1_TZpMT-41" value="" style="endArrow=none;html=1;rounded=0;entryX=0.5;entryY=0;entryDx=0;entryDy=0;exitX=0.5;exitY=1;exitDx=0;exitDy=0;" parent="1" source="BvTbpLr7_MJ0B1_TZpMT-36" target="BvTbpLr7_MJ0B1_TZpMT-5" edge="1">
          <mxGeometry relative="1" as="geometry">
            <mxPoint x="1584" y="1114" as="sourcePoint" />
            <mxPoint x="1744" y="1114" as="targetPoint" />
          </mxGeometry>
        </mxCell>
        <mxCell id="BvTbpLr7_MJ0B1_TZpMT-42" value="1" style="resizable=0;html=1;whiteSpace=wrap;align=right;verticalAlign=bottom;" parent="BvTbpLr7_MJ0B1_TZpMT-41" connectable="0" vertex="1">
          <mxGeometry x="1" relative="1" as="geometry">
            <mxPoint x="20" as="offset" />
          </mxGeometry>
        </mxCell>
        <mxCell id="BvTbpLr7_MJ0B1_TZpMT-43" value="ID" style="ellipse;whiteSpace=wrap;html=1;align=center;fontStyle=4;" parent="1" vertex="1">
          <mxGeometry x="669" y="748.13" width="100" height="43.87" as="geometry" />
        </mxCell>
        <mxCell id="BvTbpLr7_MJ0B1_TZpMT-46" value="Type" style="ellipse;whiteSpace=wrap;html=1;align=center;" parent="1" vertex="1">
          <mxGeometry x="813" y="732" width="96" height="36" as="geometry" />
        </mxCell>
        <mxCell id="BvTbpLr7_MJ0B1_TZpMT-47" value="Name" style="ellipse;whiteSpace=wrap;html=1;align=center;" parent="1" vertex="1">
          <mxGeometry x="921" y="732" width="120" height="36" as="geometry" />
        </mxCell>
        <mxCell id="BvTbpLr7_MJ0B1_TZpMT-48" value="" style="endArrow=none;html=1;rounded=0;exitX=0.75;exitY=0;exitDx=0;exitDy=0;entryX=0.5;entryY=1;entryDx=0;entryDy=0;" parent="1" source="BvTbpLr7_MJ0B1_TZpMT-38" target="BvTbpLr7_MJ0B1_TZpMT-47" edge="1">
          <mxGeometry relative="1" as="geometry">
            <mxPoint x="731" y="990.13" as="sourcePoint" />
            <mxPoint x="891" y="990.13" as="targetPoint" />
          </mxGeometry>
        </mxCell>
        <mxCell id="BvTbpLr7_MJ0B1_TZpMT-50" value="" style="endArrow=none;html=1;rounded=0;exitX=0.5;exitY=0;exitDx=0;exitDy=0;entryX=0.5;entryY=1;entryDx=0;entryDy=0;" parent="1" source="BvTbpLr7_MJ0B1_TZpMT-38" target="BvTbpLr7_MJ0B1_TZpMT-46" edge="1">
          <mxGeometry relative="1" as="geometry">
            <mxPoint x="895" y="866.13" as="sourcePoint" />
            <mxPoint x="911" y="859.13" as="targetPoint" />
          </mxGeometry>
        </mxCell>
        <mxCell id="BvTbpLr7_MJ0B1_TZpMT-51" value="" style="endArrow=none;html=1;rounded=0;entryX=0.5;entryY=1;entryDx=0;entryDy=0;exitX=0.25;exitY=0;exitDx=0;exitDy=0;" parent="1" source="BvTbpLr7_MJ0B1_TZpMT-38" target="BvTbpLr7_MJ0B1_TZpMT-43" edge="1">
          <mxGeometry relative="1" as="geometry">
            <mxPoint x="815" y="834.13" as="sourcePoint" />
            <mxPoint x="898" y="792.13" as="targetPoint" />
          </mxGeometry>
        </mxCell>
        <mxCell id="BvTbpLr7_MJ0B1_TZpMT-67" value="Admin" style="whiteSpace=wrap;html=1;align=center;" parent="1" vertex="1">
          <mxGeometry x="1940.75" y="918" width="93" height="40" as="geometry" />
        </mxCell>
        <mxCell id="BvTbpLr7_MJ0B1_TZpMT-68" value="Name" style="ellipse;whiteSpace=wrap;html=1;align=center;" parent="1" vertex="1">
          <mxGeometry x="1857" y="756" width="83.75" height="32.13" as="geometry" />
        </mxCell>
        <mxCell id="BvTbpLr7_MJ0B1_TZpMT-69" value="Gender" style="ellipse;whiteSpace=wrap;html=1;align=center;" parent="1" vertex="1">
          <mxGeometry x="1760.63" y="788.13" width="90.25" height="36.25" as="geometry" />
        </mxCell>
        <mxCell id="BvTbpLr7_MJ0B1_TZpMT-70" value="DOB" style="ellipse;whiteSpace=wrap;html=1;align=center;" parent="1" vertex="1">
          <mxGeometry x="2150.67" y="864" width="114.33" height="36" as="geometry" />
        </mxCell>
        <mxCell id="BvTbpLr7_MJ0B1_TZpMT-71" value="Phone" style="ellipse;whiteSpace=wrap;html=1;align=center;" parent="1" vertex="1">
          <mxGeometry x="2186.67" y="926.5" width="76.61" height="31.5" as="geometry" />
        </mxCell>
        <mxCell id="BvTbpLr7_MJ0B1_TZpMT-72" value="Address" style="ellipse;whiteSpace=wrap;html=1;align=center;" parent="1" vertex="1">
          <mxGeometry x="1965" y="732" width="96" height="36.13" as="geometry" />
        </mxCell>
        <mxCell id="BvTbpLr7_MJ0B1_TZpMT-73" value="" style="endArrow=none;html=1;rounded=0;entryX=0;entryY=0.5;entryDx=0;entryDy=0;exitX=0.75;exitY=0;exitDx=0;exitDy=0;" parent="1" source="BvTbpLr7_MJ0B1_TZpMT-67" target="BvTbpLr7_MJ0B1_TZpMT-70" edge="1">
          <mxGeometry relative="1" as="geometry">
            <mxPoint x="1951.25" y="948" as="sourcePoint" />
            <mxPoint x="2111.25" y="948" as="targetPoint" />
          </mxGeometry>
        </mxCell>
        <mxCell id="BvTbpLr7_MJ0B1_TZpMT-74" value="" style="endArrow=none;html=1;rounded=0;entryX=0;entryY=0.5;entryDx=0;entryDy=0;exitX=1;exitY=0.5;exitDx=0;exitDy=0;" parent="1" source="BvTbpLr7_MJ0B1_TZpMT-67" target="BvTbpLr7_MJ0B1_TZpMT-71" edge="1">
          <mxGeometry relative="1" as="geometry">
            <mxPoint x="1981.2500000000002" y="948" as="sourcePoint" />
            <mxPoint x="1888.25" y="1057.5" as="targetPoint" />
          </mxGeometry>
        </mxCell>
        <mxCell id="BvTbpLr7_MJ0B1_TZpMT-75" value="" style="endArrow=none;html=1;rounded=0;entryX=1;entryY=0.5;entryDx=0;entryDy=0;exitX=0;exitY=0.75;exitDx=0;exitDy=0;" parent="1" source="BvTbpLr7_MJ0B1_TZpMT-67" target="BvTbpLr7_MJ0B1_TZpMT-69" edge="1">
          <mxGeometry relative="1" as="geometry">
            <mxPoint x="1921.25" y="918" as="sourcePoint" />
            <mxPoint x="1812.2499999999857" y="948" as="targetPoint" />
          </mxGeometry>
        </mxCell>
        <mxCell id="BvTbpLr7_MJ0B1_TZpMT-76" value="" style="endArrow=none;html=1;rounded=0;entryX=0.5;entryY=0;entryDx=0;entryDy=0;exitX=0.5;exitY=1;exitDx=0;exitDy=0;" parent="1" source="BvTbpLr7_MJ0B1_TZpMT-79" target="BvTbpLr7_MJ0B1_TZpMT-67" edge="1">
          <mxGeometry relative="1" as="geometry">
            <mxPoint x="1971.25" y="868" as="sourcePoint" />
            <mxPoint x="1961.25" y="908" as="targetPoint" />
          </mxGeometry>
        </mxCell>
        <mxCell id="BvTbpLr7_MJ0B1_TZpMT-77" value="" style="endArrow=none;html=1;rounded=0;entryX=0.25;entryY=0;entryDx=0;entryDy=0;exitX=0.5;exitY=1;exitDx=0;exitDy=0;" parent="1" source="BvTbpLr7_MJ0B1_TZpMT-72" target="BvTbpLr7_MJ0B1_TZpMT-67" edge="1">
          <mxGeometry relative="1" as="geometry">
            <mxPoint x="1901.25" y="848" as="sourcePoint" />
            <mxPoint x="1891.25" y="888" as="targetPoint" />
          </mxGeometry>
        </mxCell>
        <mxCell id="BvTbpLr7_MJ0B1_TZpMT-78" value="" style="endArrow=none;html=1;rounded=0;entryX=0;entryY=0.25;entryDx=0;entryDy=0;exitX=0.5;exitY=1;exitDx=0;exitDy=0;" parent="1" source="BvTbpLr7_MJ0B1_TZpMT-68" target="BvTbpLr7_MJ0B1_TZpMT-67" edge="1">
          <mxGeometry relative="1" as="geometry">
            <mxPoint x="1866.25" y="918" as="sourcePoint" />
            <mxPoint x="1856.25" y="958" as="targetPoint" />
          </mxGeometry>
        </mxCell>
        <mxCell id="BvTbpLr7_MJ0B1_TZpMT-79" value="ID" style="ellipse;whiteSpace=wrap;html=1;align=center;fontStyle=4;" parent="1" vertex="1">
          <mxGeometry x="2109" y="780" width="77.67" height="30" as="geometry" />
        </mxCell>
        <mxCell id="BvTbpLr7_MJ0B1_TZpMT-81" value="Position" style="ellipse;whiteSpace=wrap;html=1;align=center;" parent="1" vertex="1">
          <mxGeometry x="1713" y="841.63" width="102.39" height="45" as="geometry" />
        </mxCell>
        <mxCell id="BvTbpLr7_MJ0B1_TZpMT-84" value="" style="endArrow=none;html=1;rounded=0;entryX=1;entryY=0.5;entryDx=0;entryDy=0;exitX=0;exitY=1;exitDx=0;exitDy=0;" parent="1" source="BvTbpLr7_MJ0B1_TZpMT-67" target="BvTbpLr7_MJ0B1_TZpMT-81" edge="1">
          <mxGeometry relative="1" as="geometry">
            <mxPoint x="1896.25" y="960" as="sourcePoint" />
            <mxPoint x="1812.2499999999857" y="994" as="targetPoint" />
          </mxGeometry>
        </mxCell>
        <mxCell id="BvTbpLr7_MJ0B1_TZpMT-99" value="rescue team" style="whiteSpace=wrap;html=1;align=center;" parent="1" vertex="1">
          <mxGeometry x="1953.67" y="2118" width="84" height="40" as="geometry" />
        </mxCell>
        <mxCell id="BvTbpLr7_MJ0B1_TZpMT-100" value="Name" style="ellipse;whiteSpace=wrap;html=1;align=center;" parent="1" vertex="1">
          <mxGeometry x="2318.67" y="2182" width="60" height="20" as="geometry" />
        </mxCell>
        <mxCell id="BvTbpLr7_MJ0B1_TZpMT-101" value="startDay" style="ellipse;whiteSpace=wrap;html=1;align=center;" parent="1" vertex="1">
          <mxGeometry x="2294.67" y="2124" width="60" height="34" as="geometry" />
        </mxCell>
        <mxCell id="BvTbpLr7_MJ0B1_TZpMT-102" value="Major" style="ellipse;whiteSpace=wrap;html=1;align=center;" parent="1" vertex="1">
          <mxGeometry x="2186.67" y="2038" width="60" height="20" as="geometry" />
        </mxCell>
        <mxCell id="BvTbpLr7_MJ0B1_TZpMT-103" value="Phone" style="ellipse;whiteSpace=wrap;html=1;align=center;" parent="1" vertex="1">
          <mxGeometry x="2234.67" y="2248" width="60" height="20" as="geometry" />
        </mxCell>
        <mxCell id="BvTbpLr7_MJ0B1_TZpMT-104" value="Address" style="ellipse;whiteSpace=wrap;html=1;align=center;" parent="1" vertex="1">
          <mxGeometry x="2150.67" y="2278" width="60" height="20" as="geometry" />
        </mxCell>
        <mxCell id="BvTbpLr7_MJ0B1_TZpMT-105" value="" style="endArrow=none;html=1;rounded=0;entryX=0;entryY=0.5;entryDx=0;entryDy=0;exitX=1;exitY=0;exitDx=0;exitDy=0;" parent="1" source="BvTbpLr7_MJ0B1_TZpMT-99" target="BvTbpLr7_MJ0B1_TZpMT-102" edge="1">
          <mxGeometry relative="1" as="geometry">
            <mxPoint x="1945.67" y="2158" as="sourcePoint" />
            <mxPoint x="2105.67" y="2158" as="targetPoint" />
          </mxGeometry>
        </mxCell>
        <mxCell id="BvTbpLr7_MJ0B1_TZpMT-106" value="" style="endArrow=none;html=1;rounded=0;entryX=0.5;entryY=0;entryDx=0;entryDy=0;exitX=0.5;exitY=1;exitDx=0;exitDy=0;" parent="1" source="BvTbpLr7_MJ0B1_TZpMT-99" target="BvTbpLr7_MJ0B1_TZpMT-103" edge="1">
          <mxGeometry relative="1" as="geometry">
            <mxPoint x="1975.67" y="2158" as="sourcePoint" />
            <mxPoint x="1965.67" y="2198" as="targetPoint" />
          </mxGeometry>
        </mxCell>
        <mxCell id="BvTbpLr7_MJ0B1_TZpMT-107" value="" style="endArrow=none;html=1;rounded=0;exitX=1;exitY=0.5;exitDx=0;exitDy=0;entryX=0;entryY=0.5;entryDx=0;entryDy=0;" parent="1" source="BvTbpLr7_MJ0B1_TZpMT-99" target="BvTbpLr7_MJ0B1_TZpMT-101" edge="1">
          <mxGeometry relative="1" as="geometry">
            <mxPoint x="1915.67" y="2128" as="sourcePoint" />
            <mxPoint x="2288.67" y="2138" as="targetPoint" />
          </mxGeometry>
        </mxCell>
        <mxCell id="BvTbpLr7_MJ0B1_TZpMT-108" value="" style="endArrow=none;html=1;rounded=0;entryX=0.75;entryY=0;entryDx=0;entryDy=0;exitX=0.5;exitY=1;exitDx=0;exitDy=0;" parent="1" source="BvTbpLr7_MJ0B1_TZpMT-111" target="BvTbpLr7_MJ0B1_TZpMT-99" edge="1">
          <mxGeometry relative="1" as="geometry">
            <mxPoint x="1965.67" y="2078" as="sourcePoint" />
            <mxPoint x="1955.67" y="2118" as="targetPoint" />
          </mxGeometry>
        </mxCell>
        <mxCell id="BvTbpLr7_MJ0B1_TZpMT-109" value="" style="endArrow=none;html=1;rounded=0;entryX=0.25;entryY=1;entryDx=0;entryDy=0;exitX=0.5;exitY=0;exitDx=0;exitDy=0;" parent="1" source="BvTbpLr7_MJ0B1_TZpMT-104" target="BvTbpLr7_MJ0B1_TZpMT-99" edge="1">
          <mxGeometry relative="1" as="geometry">
            <mxPoint x="1895.67" y="2058" as="sourcePoint" />
            <mxPoint x="1885.67" y="2098" as="targetPoint" />
          </mxGeometry>
        </mxCell>
        <mxCell id="BvTbpLr7_MJ0B1_TZpMT-110" value="" style="endArrow=none;html=1;rounded=0;entryX=1;entryY=0.75;entryDx=0;entryDy=0;exitX=0;exitY=0.5;exitDx=0;exitDy=0;" parent="1" source="BvTbpLr7_MJ0B1_TZpMT-100" target="BvTbpLr7_MJ0B1_TZpMT-99" edge="1">
          <mxGeometry relative="1" as="geometry">
            <mxPoint x="1860.67" y="2128" as="sourcePoint" />
            <mxPoint x="1850.67" y="2168" as="targetPoint" />
          </mxGeometry>
        </mxCell>
        <mxCell id="BvTbpLr7_MJ0B1_TZpMT-111" value="ID" style="ellipse;whiteSpace=wrap;html=1;align=center;fontStyle=4;" parent="1" vertex="1">
          <mxGeometry x="2013.67" y="2002" width="70" height="30" as="geometry" />
        </mxCell>
        <mxCell id="BvTbpLr7_MJ0B1_TZpMT-112" value="Achievements" style="ellipse;whiteSpace=wrap;html=1;align=center;" parent="1" vertex="1">
          <mxGeometry x="2246.67" y="2074" width="105" height="32" as="geometry" />
        </mxCell>
        <mxCell id="BvTbpLr7_MJ0B1_TZpMT-113" value="" style="endArrow=none;html=1;rounded=0;entryX=0;entryY=0.5;entryDx=0;entryDy=0;exitX=1;exitY=0.25;exitDx=0;exitDy=0;" parent="1" source="BvTbpLr7_MJ0B1_TZpMT-99" target="BvTbpLr7_MJ0B1_TZpMT-112" edge="1">
          <mxGeometry relative="1" as="geometry">
            <mxPoint x="1890.67" y="2170" as="sourcePoint" />
            <mxPoint x="1818.67" y="2170" as="targetPoint" />
          </mxGeometry>
        </mxCell>
        <mxCell id="BvTbpLr7_MJ0B1_TZpMT-114" value="service" style="whiteSpace=wrap;html=1;align=center;" parent="1" vertex="1">
          <mxGeometry x="1953.67" y="1328.75" width="100" height="40" as="geometry" />
        </mxCell>
        <mxCell id="BvTbpLr7_MJ0B1_TZpMT-115" value="ID" style="ellipse;whiteSpace=wrap;html=1;align=center;fontStyle=4;" parent="1" vertex="1">
          <mxGeometry x="2109" y="1128" width="94" height="44.75" as="geometry" />
        </mxCell>
        <mxCell id="BvTbpLr7_MJ0B1_TZpMT-116" value="Name" style="ellipse;whiteSpace=wrap;html=1;align=center;" parent="1" vertex="1">
          <mxGeometry x="2214.34" y="1162.75" width="104.33" height="49" as="geometry" />
        </mxCell>
        <mxCell id="BvTbpLr7_MJ0B1_TZpMT-117" value="Introdution" style="ellipse;whiteSpace=wrap;html=1;align=center;" parent="1" vertex="1">
          <mxGeometry x="2246.67" y="1395" width="128.33" height="40.25" as="geometry" />
        </mxCell>
        <mxCell id="BvTbpLr7_MJ0B1_TZpMT-118" value="Process" style="ellipse;whiteSpace=wrap;html=1;align=center;" parent="1" vertex="1">
          <mxGeometry x="2250.34" y="1251.75" width="104.33" height="42.25" as="geometry" />
        </mxCell>
        <mxCell id="BvTbpLr7_MJ0B1_TZpMT-119" value="Price" style="ellipse;whiteSpace=wrap;html=1;align=center;" parent="1" vertex="1">
          <mxGeometry x="2272.51" y="1332.5" width="104.33" height="36.25" as="geometry" />
        </mxCell>
        <mxCell id="BvTbpLr7_MJ0B1_TZpMT-120" value="" style="endArrow=none;html=1;rounded=0;exitX=0.75;exitY=1;exitDx=0;exitDy=0;entryX=0;entryY=0.5;entryDx=0;entryDy=0;" parent="1" source="BvTbpLr7_MJ0B1_TZpMT-114" target="BvTbpLr7_MJ0B1_TZpMT-117" edge="1">
          <mxGeometry relative="1" as="geometry">
            <mxPoint x="1860.67" y="1423.75" as="sourcePoint" />
            <mxPoint x="2020.67" y="1423.75" as="targetPoint" />
          </mxGeometry>
        </mxCell>
        <mxCell id="BvTbpLr7_MJ0B1_TZpMT-121" value="" style="endArrow=none;html=1;rounded=0;exitX=1;exitY=1;exitDx=0;exitDy=0;entryX=0;entryY=0.5;entryDx=0;entryDy=0;" parent="1" source="BvTbpLr7_MJ0B1_TZpMT-114" target="BvTbpLr7_MJ0B1_TZpMT-119" edge="1">
          <mxGeometry relative="1" as="geometry">
            <mxPoint x="2030.67" y="1387.75" as="sourcePoint" />
            <mxPoint x="1998.67" y="1432.75" as="targetPoint" />
          </mxGeometry>
        </mxCell>
        <mxCell id="BvTbpLr7_MJ0B1_TZpMT-122" value="" style="endArrow=none;html=1;rounded=0;exitX=1;exitY=0.75;exitDx=0;exitDy=0;entryX=0;entryY=0.5;entryDx=0;entryDy=0;" parent="1" source="BvTbpLr7_MJ0B1_TZpMT-114" target="BvTbpLr7_MJ0B1_TZpMT-118" edge="1">
          <mxGeometry relative="1" as="geometry">
            <mxPoint x="2055.67" y="1387.75" as="sourcePoint" />
            <mxPoint x="2080.67" y="1424.75" as="targetPoint" />
          </mxGeometry>
        </mxCell>
        <mxCell id="BvTbpLr7_MJ0B1_TZpMT-123" value="" style="endArrow=none;html=1;rounded=0;exitX=1;exitY=0.25;exitDx=0;exitDy=0;entryX=0.5;entryY=1;entryDx=0;entryDy=0;" parent="1" source="BvTbpLr7_MJ0B1_TZpMT-114" target="BvTbpLr7_MJ0B1_TZpMT-116" edge="1">
          <mxGeometry relative="1" as="geometry">
            <mxPoint x="2067.67" y="1399.75" as="sourcePoint" />
            <mxPoint x="2092.67" y="1436.75" as="targetPoint" />
          </mxGeometry>
        </mxCell>
        <mxCell id="BvTbpLr7_MJ0B1_TZpMT-124" value="" style="endArrow=none;html=1;rounded=0;exitX=0.5;exitY=0;exitDx=0;exitDy=0;entryX=0.5;entryY=1;entryDx=0;entryDy=0;" parent="1" source="BvTbpLr7_MJ0B1_TZpMT-114" target="BvTbpLr7_MJ0B1_TZpMT-115" edge="1">
          <mxGeometry relative="1" as="geometry">
            <mxPoint x="2080.67" y="1357.75" as="sourcePoint" />
            <mxPoint x="2100.67" y="1328.75" as="targetPoint" />
          </mxGeometry>
        </mxCell>
        <mxCell id="BvTbpLr7_MJ0B1_TZpMT-125" value="use" style="shape=rhombus;perimeter=rhombusPerimeter;whiteSpace=wrap;html=1;align=center;" parent="1" vertex="1">
          <mxGeometry x="1413" y="1080" width="120.5" height="59" as="geometry" />
        </mxCell>
        <mxCell id="BvTbpLr7_MJ0B1_TZpMT-127" value="register" style="shape=rhombus;perimeter=rhombusPerimeter;whiteSpace=wrap;html=1;align=center;" parent="1" vertex="1">
          <mxGeometry x="1918" y="1570" width="100" height="40" as="geometry" />
        </mxCell>
        <mxCell id="BvTbpLr7_MJ0B1_TZpMT-130" value="" style="endArrow=none;html=1;rounded=0;entryX=0.5;entryY=0;entryDx=0;entryDy=0;exitX=0.5;exitY=1;exitDx=0;exitDy=0;" parent="1" source="BvTbpLr7_MJ0B1_TZpMT-127" target="BvTbpLr7_MJ0B1_TZpMT-99" edge="1">
          <mxGeometry relative="1" as="geometry">
            <mxPoint x="1486" y="1524" as="sourcePoint" />
            <mxPoint x="1646" y="1524" as="targetPoint" />
          </mxGeometry>
        </mxCell>
        <mxCell id="BvTbpLr7_MJ0B1_TZpMT-131" value="1" style="resizable=0;html=1;whiteSpace=wrap;align=right;verticalAlign=bottom;" parent="BvTbpLr7_MJ0B1_TZpMT-130" connectable="0" vertex="1">
          <mxGeometry x="1" relative="1" as="geometry">
            <mxPoint x="-8" y="-12" as="offset" />
          </mxGeometry>
        </mxCell>
        <mxCell id="BvTbpLr7_MJ0B1_TZpMT-132" value="" style="endArrow=none;html=1;rounded=0;exitX=0.5;exitY=0;exitDx=0;exitDy=0;entryX=0;entryY=1;entryDx=0;entryDy=0;" parent="1" source="BvTbpLr7_MJ0B1_TZpMT-127" target="BvTbpLr7_MJ0B1_TZpMT-114" edge="1">
          <mxGeometry relative="1" as="geometry">
            <mxPoint x="1690" y="1476" as="sourcePoint" />
            <mxPoint x="1850" y="1476" as="targetPoint" />
          </mxGeometry>
        </mxCell>
        <mxCell id="BvTbpLr7_MJ0B1_TZpMT-133" value="N" style="resizable=0;html=1;whiteSpace=wrap;align=right;verticalAlign=bottom;" parent="BvTbpLr7_MJ0B1_TZpMT-132" connectable="0" vertex="1">
          <mxGeometry x="1" relative="1" as="geometry" />
        </mxCell>
        <mxCell id="BvTbpLr7_MJ0B1_TZpMT-134" value="" style="endArrow=none;html=1;rounded=0;exitX=1;exitY=0.5;exitDx=0;exitDy=0;" parent="1" source="BvTbpLr7_MJ0B1_TZpMT-5" target="BvTbpLr7_MJ0B1_TZpMT-125" edge="1">
          <mxGeometry relative="1" as="geometry">
            <mxPoint x="1582" y="1356" as="sourcePoint" />
            <mxPoint x="1742" y="1356" as="targetPoint" />
          </mxGeometry>
        </mxCell>
        <mxCell id="BvTbpLr7_MJ0B1_TZpMT-135" value="M" style="resizable=0;html=1;whiteSpace=wrap;align=left;verticalAlign=bottom;" parent="BvTbpLr7_MJ0B1_TZpMT-134" connectable="0" vertex="1">
          <mxGeometry x="-1" relative="1" as="geometry">
            <mxPoint x="26" y="16" as="offset" />
          </mxGeometry>
        </mxCell>
        <mxCell id="BvTbpLr7_MJ0B1_TZpMT-136" value="" style="resizable=0;html=1;whiteSpace=wrap;align=right;verticalAlign=bottom;" parent="BvTbpLr7_MJ0B1_TZpMT-134" connectable="0" vertex="1">
          <mxGeometry x="1" relative="1" as="geometry" />
        </mxCell>
        <mxCell id="BvTbpLr7_MJ0B1_TZpMT-137" value="" style="endArrow=none;html=1;rounded=0;exitX=1;exitY=1;exitDx=0;exitDy=0;entryX=0;entryY=0;entryDx=0;entryDy=0;" parent="1" source="BvTbpLr7_MJ0B1_TZpMT-125" target="BvTbpLr7_MJ0B1_TZpMT-114" edge="1">
          <mxGeometry relative="1" as="geometry">
            <mxPoint x="1702" y="1344" as="sourcePoint" />
            <mxPoint x="1862" y="1344" as="targetPoint" />
          </mxGeometry>
        </mxCell>
        <mxCell id="BvTbpLr7_MJ0B1_TZpMT-138" value="N" style="resizable=0;html=1;whiteSpace=wrap;align=right;verticalAlign=bottom;" parent="BvTbpLr7_MJ0B1_TZpMT-137" connectable="0" vertex="1">
          <mxGeometry x="1" relative="1" as="geometry" />
        </mxCell>
        <mxCell id="BvTbpLr7_MJ0B1_TZpMT-139" value="Date" style="ellipse;whiteSpace=wrap;html=1;align=center;" parent="1" vertex="1">
          <mxGeometry x="1353" y="1160.75" width="102.5" height="39.25" as="geometry" />
        </mxCell>
        <mxCell id="BvTbpLr7_MJ0B1_TZpMT-140" value="Time" style="ellipse;whiteSpace=wrap;html=1;align=center;" parent="1" vertex="1">
          <mxGeometry x="1459.5" y="1179" width="97.5" height="45" as="geometry" />
        </mxCell>
        <mxCell id="BvTbpLr7_MJ0B1_TZpMT-141" value="" style="endArrow=none;html=1;rounded=0;entryX=0.5;entryY=0;entryDx=0;entryDy=0;exitX=0;exitY=1;exitDx=0;exitDy=0;" parent="1" source="BvTbpLr7_MJ0B1_TZpMT-125" target="BvTbpLr7_MJ0B1_TZpMT-139" edge="1">
          <mxGeometry relative="1" as="geometry">
            <mxPoint x="1218.5" y="1047" as="sourcePoint" />
            <mxPoint x="1225.5" y="1131" as="targetPoint" />
          </mxGeometry>
        </mxCell>
        <mxCell id="BvTbpLr7_MJ0B1_TZpMT-142" value="" style="endArrow=none;html=1;rounded=0;entryX=0.5;entryY=0;entryDx=0;entryDy=0;exitX=0.5;exitY=1;exitDx=0;exitDy=0;" parent="1" source="BvTbpLr7_MJ0B1_TZpMT-125" target="BvTbpLr7_MJ0B1_TZpMT-140" edge="1">
          <mxGeometry relative="1" as="geometry">
            <mxPoint x="1470.5" y="1141" as="sourcePoint" />
            <mxPoint x="1425.5" y="1171" as="targetPoint" />
          </mxGeometry>
        </mxCell>
        <mxCell id="BvTbpLr7_MJ0B1_TZpMT-148" value="regísterDate" style="ellipse;whiteSpace=wrap;html=1;align=center;" parent="1" vertex="1">
          <mxGeometry x="2156.1800000000003" y="1476" width="116.33" height="48" as="geometry" />
        </mxCell>
        <mxCell id="BvTbpLr7_MJ0B1_TZpMT-150" value="" style="endArrow=none;html=1;rounded=0;exitX=0.25;exitY=1;exitDx=0;exitDy=0;entryX=0.5;entryY=0;entryDx=0;entryDy=0;" parent="1" source="BvTbpLr7_MJ0B1_TZpMT-114" target="BvTbpLr7_MJ0B1_TZpMT-148" edge="1">
          <mxGeometry relative="1" as="geometry">
            <mxPoint x="2015.67" y="1380.75" as="sourcePoint" />
            <mxPoint x="2106.67" y="1516.7499999999998" as="targetPoint" />
          </mxGeometry>
        </mxCell>
        <mxCell id="BvTbpLr7_MJ0B1_TZpMT-152" value="accept" style="shape=rhombus;perimeter=rhombusPerimeter;whiteSpace=wrap;html=1;align=center;" parent="1" vertex="1">
          <mxGeometry x="1937.67" y="1080" width="100" height="40" as="geometry" />
        </mxCell>
        <mxCell id="BvTbpLr7_MJ0B1_TZpMT-154" value="" style="endArrow=none;html=1;rounded=0;exitX=0.5;exitY=0;exitDx=0;exitDy=0;entryX=0.5;entryY=1;entryDx=0;entryDy=0;" parent="1" source="BvTbpLr7_MJ0B1_TZpMT-152" target="BvTbpLr7_MJ0B1_TZpMT-67" edge="1">
          <mxGeometry relative="1" as="geometry">
            <mxPoint x="1936.67" y="739.5" as="sourcePoint" />
            <mxPoint x="2013" y="960" as="targetPoint" />
          </mxGeometry>
        </mxCell>
        <mxCell id="BvTbpLr7_MJ0B1_TZpMT-155" value="1" style="resizable=0;html=1;whiteSpace=wrap;align=right;verticalAlign=bottom;" parent="BvTbpLr7_MJ0B1_TZpMT-154" connectable="0" vertex="1">
          <mxGeometry x="1" relative="1" as="geometry">
            <mxPoint x="16" y="26" as="offset" />
          </mxGeometry>
        </mxCell>
        <mxCell id="BvTbpLr7_MJ0B1_TZpMT-156" value="" style="endArrow=none;html=1;rounded=0;exitX=0.5;exitY=1;exitDx=0;exitDy=0;entryX=0.25;entryY=0;entryDx=0;entryDy=0;" parent="1" source="BvTbpLr7_MJ0B1_TZpMT-152" target="BvTbpLr7_MJ0B1_TZpMT-114" edge="1">
          <mxGeometry relative="1" as="geometry">
            <mxPoint x="1438" y="1308" as="sourcePoint" />
            <mxPoint x="1598" y="1308" as="targetPoint" />
          </mxGeometry>
        </mxCell>
        <mxCell id="BvTbpLr7_MJ0B1_TZpMT-157" value="N" style="resizable=0;html=1;whiteSpace=wrap;align=right;verticalAlign=bottom;" parent="BvTbpLr7_MJ0B1_TZpMT-156" connectable="0" vertex="1">
          <mxGeometry x="1" relative="1" as="geometry" />
        </mxCell>
        <mxCell id="BvTbpLr7_MJ0B1_TZpMT-164" value="&amp;nbsp;request&amp;nbsp;" style="shape=rhombus;perimeter=rhombusPerimeter;whiteSpace=wrap;html=1;align=center;" parent="1" vertex="1">
          <mxGeometry x="1219" y="1464" width="123" height="60" as="geometry" />
        </mxCell>
        <mxCell id="BvTbpLr7_MJ0B1_TZpMT-166" value="" style="endArrow=none;html=1;rounded=0;exitX=1;exitY=1;exitDx=0;exitDy=0;entryX=0;entryY=0;entryDx=0;entryDy=0;" parent="1" source="BvTbpLr7_MJ0B1_TZpMT-5" target="BvTbpLr7_MJ0B1_TZpMT-164" edge="1">
          <mxGeometry relative="1" as="geometry">
            <mxPoint x="1390" y="1680" as="sourcePoint" />
            <mxPoint x="1550" y="1680" as="targetPoint" />
          </mxGeometry>
        </mxCell>
        <mxCell id="BvTbpLr7_MJ0B1_TZpMT-167" value="1" style="resizable=0;html=1;whiteSpace=wrap;align=left;verticalAlign=bottom;" parent="BvTbpLr7_MJ0B1_TZpMT-166" connectable="0" vertex="1">
          <mxGeometry x="-1" relative="1" as="geometry">
            <mxPoint x="9" y="26" as="offset" />
          </mxGeometry>
        </mxCell>
        <mxCell id="BvTbpLr7_MJ0B1_TZpMT-176" value="Rescue Request" style="whiteSpace=wrap;html=1;align=center;" parent="1" vertex="1">
          <mxGeometry x="1394.5" y="1647.65" width="100" height="40" as="geometry" />
        </mxCell>
        <mxCell id="BvTbpLr7_MJ0B1_TZpMT-177" value="ID" style="ellipse;whiteSpace=wrap;html=1;align=center;fontStyle=4;" parent="1" vertex="1">
          <mxGeometry x="1216.5" y="1773.65" width="100" height="40" as="geometry" />
        </mxCell>
        <mxCell id="BvTbpLr7_MJ0B1_TZpMT-178" value="Date" style="ellipse;whiteSpace=wrap;html=1;align=center;" parent="1" vertex="1">
          <mxGeometry x="1341.5" y="1791.65" width="100" height="40" as="geometry" />
        </mxCell>
        <mxCell id="BvTbpLr7_MJ0B1_TZpMT-179" value="" style="endArrow=none;html=1;rounded=0;exitX=0;exitY=1;exitDx=0;exitDy=0;entryX=0.5;entryY=0;entryDx=0;entryDy=0;" parent="1" source="BvTbpLr7_MJ0B1_TZpMT-176" target="BvTbpLr7_MJ0B1_TZpMT-177" edge="1">
          <mxGeometry relative="1" as="geometry">
            <mxPoint x="1414.5" y="1671.65" as="sourcePoint" />
            <mxPoint x="1574.5" y="1671.65" as="targetPoint" />
          </mxGeometry>
        </mxCell>
        <mxCell id="BvTbpLr7_MJ0B1_TZpMT-180" value="" style="endArrow=none;html=1;rounded=0;exitX=0.5;exitY=1;exitDx=0;exitDy=0;entryX=0.5;entryY=0;entryDx=0;entryDy=0;" parent="1" source="BvTbpLr7_MJ0B1_TZpMT-176" target="BvTbpLr7_MJ0B1_TZpMT-178" edge="1">
          <mxGeometry relative="1" as="geometry">
            <mxPoint x="1424.5" y="1699.65" as="sourcePoint" />
            <mxPoint x="1348.5" y="1745.65" as="targetPoint" />
          </mxGeometry>
        </mxCell>
        <mxCell id="BvTbpLr7_MJ0B1_TZpMT-181" value="" style="endArrow=none;html=1;rounded=0;exitX=1;exitY=1;exitDx=0;exitDy=0;entryX=0.5;entryY=0;entryDx=0;entryDy=0;" parent="1" source="BvTbpLr7_MJ0B1_TZpMT-164" target="BvTbpLr7_MJ0B1_TZpMT-176" edge="1">
          <mxGeometry relative="1" as="geometry">
            <mxPoint x="1425" y="1764" as="sourcePoint" />
            <mxPoint x="1585" y="1764" as="targetPoint" />
          </mxGeometry>
        </mxCell>
        <mxCell id="BvTbpLr7_MJ0B1_TZpMT-182" value="N" style="resizable=0;html=1;whiteSpace=wrap;align=right;verticalAlign=bottom;" parent="BvTbpLr7_MJ0B1_TZpMT-181" connectable="0" vertex="1">
          <mxGeometry x="1" relative="1" as="geometry">
            <mxPoint x="-3" y="-4" as="offset" />
          </mxGeometry>
        </mxCell>
        <mxCell id="BvTbpLr7_MJ0B1_TZpMT-183" value="Description" style="ellipse;whiteSpace=wrap;html=1;align=center;" parent="1" vertex="1">
          <mxGeometry x="1486" y="1799.65" width="100" height="40" as="geometry" />
        </mxCell>
        <mxCell id="BvTbpLr7_MJ0B1_TZpMT-184" value="" style="endArrow=none;html=1;rounded=0;exitX=0.75;exitY=1;exitDx=0;exitDy=0;entryX=0;entryY=0.5;entryDx=0;entryDy=0;" parent="1" source="BvTbpLr7_MJ0B1_TZpMT-176" target="BvTbpLr7_MJ0B1_TZpMT-183" edge="1">
          <mxGeometry relative="1" as="geometry">
            <mxPoint x="1456.5" y="1699.65" as="sourcePoint" />
            <mxPoint x="1517.5" y="1791.6499999999999" as="targetPoint" />
          </mxGeometry>
        </mxCell>
        <mxCell id="BvTbpLr7_MJ0B1_TZpMT-185" value="accept" style="shape=rhombus;perimeter=rhombusPerimeter;whiteSpace=wrap;html=1;align=center;" parent="1" vertex="1">
          <mxGeometry x="1695.39" y="1753.65" width="120" height="60" as="geometry" />
        </mxCell>
        <mxCell id="BvTbpLr7_MJ0B1_TZpMT-186" value="" style="endArrow=none;html=1;rounded=0;exitX=1;exitY=1;exitDx=0;exitDy=0;entryX=0;entryY=0;entryDx=0;entryDy=0;" parent="1" source="BvTbpLr7_MJ0B1_TZpMT-185" target="BvTbpLr7_MJ0B1_TZpMT-99" edge="1">
          <mxGeometry relative="1" as="geometry">
            <mxPoint x="1821" y="1608" as="sourcePoint" />
            <mxPoint x="1981" y="1608" as="targetPoint" />
          </mxGeometry>
        </mxCell>
        <mxCell id="BvTbpLr7_MJ0B1_TZpMT-187" value="1" style="resizable=0;html=1;whiteSpace=wrap;align=right;verticalAlign=bottom;" parent="BvTbpLr7_MJ0B1_TZpMT-186" connectable="0" vertex="1">
          <mxGeometry x="1" relative="1" as="geometry">
            <mxPoint x="-13" as="offset" />
          </mxGeometry>
        </mxCell>
        <mxCell id="BvTbpLr7_MJ0B1_TZpMT-188" value="" style="endArrow=none;html=1;rounded=0;exitX=0;exitY=0;exitDx=0;exitDy=0;entryX=1;entryY=0.5;entryDx=0;entryDy=0;" parent="1" source="BvTbpLr7_MJ0B1_TZpMT-185" target="BvTbpLr7_MJ0B1_TZpMT-176" edge="1">
          <mxGeometry relative="1" as="geometry">
            <mxPoint x="1821" y="1608" as="sourcePoint" />
            <mxPoint x="1981" y="1608" as="targetPoint" />
          </mxGeometry>
        </mxCell>
        <mxCell id="BvTbpLr7_MJ0B1_TZpMT-189" value="N" style="resizable=0;html=1;whiteSpace=wrap;align=right;verticalAlign=bottom;" parent="BvTbpLr7_MJ0B1_TZpMT-188" connectable="0" vertex="1">
          <mxGeometry x="1" relative="1" as="geometry">
            <mxPoint x="16" as="offset" />
          </mxGeometry>
        </mxCell>
        <mxCell id="BvTbpLr7_MJ0B1_TZpMT-192" value="Evaluation" style="whiteSpace=wrap;html=1;align=center;" parent="1" vertex="1">
          <mxGeometry x="945" y="2028" width="100" height="40" as="geometry" />
        </mxCell>
        <mxCell id="BvTbpLr7_MJ0B1_TZpMT-194" value="TypeOfVehicle" style="ellipse;whiteSpace=wrap;html=1;align=center;" parent="1" vertex="1">
          <mxGeometry x="1185" y="1656.0099999999998" width="100" height="40" as="geometry" />
        </mxCell>
        <mxCell id="BvTbpLr7_MJ0B1_TZpMT-195" value="" style="endArrow=none;html=1;rounded=0;exitX=0;exitY=0.5;exitDx=0;exitDy=0;entryX=1;entryY=0.5;entryDx=0;entryDy=0;" parent="1" source="BvTbpLr7_MJ0B1_TZpMT-176" target="BvTbpLr7_MJ0B1_TZpMT-194" edge="1">
          <mxGeometry relative="1" as="geometry">
            <mxPoint x="1407" y="1700.0099999999998" as="sourcePoint" />
            <mxPoint x="1279" y="1786.01" as="targetPoint" />
          </mxGeometry>
        </mxCell>
        <mxCell id="BvTbpLr7_MJ0B1_TZpMT-197" value="content" style="ellipse;whiteSpace=wrap;html=1;align=center;" parent="1" vertex="1">
          <mxGeometry x="805" y="2121" width="100" height="40" as="geometry" />
        </mxCell>
        <mxCell id="BvTbpLr7_MJ0B1_TZpMT-198" value="" style="endArrow=none;html=1;rounded=0;exitX=0;exitY=1;exitDx=0;exitDy=0;entryX=0.5;entryY=0;entryDx=0;entryDy=0;" parent="1" source="BvTbpLr7_MJ0B1_TZpMT-192" target="BvTbpLr7_MJ0B1_TZpMT-197" edge="1">
          <mxGeometry relative="1" as="geometry">
            <mxPoint x="1221" y="2046" as="sourcePoint" />
            <mxPoint x="1381" y="2046" as="targetPoint" />
          </mxGeometry>
        </mxCell>
        <mxCell id="BvTbpLr7_MJ0B1_TZpMT-199" value="sendDate" style="ellipse;whiteSpace=wrap;html=1;align=center;" parent="1" vertex="1">
          <mxGeometry x="905" y="2182" width="100" height="40" as="geometry" />
        </mxCell>
        <mxCell id="BvTbpLr7_MJ0B1_TZpMT-200" value="" style="endArrow=none;html=1;rounded=0;exitX=0.5;exitY=1;exitDx=0;exitDy=0;entryX=0.5;entryY=0;entryDx=0;entryDy=0;" parent="1" source="BvTbpLr7_MJ0B1_TZpMT-192" target="BvTbpLr7_MJ0B1_TZpMT-199" edge="1">
          <mxGeometry relative="1" as="geometry">
            <mxPoint x="1029" y="2074" as="sourcePoint" />
            <mxPoint x="979" y="2142" as="targetPoint" />
          </mxGeometry>
        </mxCell>
        <mxCell id="BvTbpLr7_MJ0B1_TZpMT-201" value="score" style="ellipse;whiteSpace=wrap;html=1;align=center;" parent="1" vertex="1">
          <mxGeometry x="1040.5" y="2158" width="100" height="40" as="geometry" />
        </mxCell>
        <mxCell id="BvTbpLr7_MJ0B1_TZpMT-202" value="" style="endArrow=none;html=1;rounded=0;exitX=0.75;exitY=1;exitDx=0;exitDy=0;entryX=0.5;entryY=0;entryDx=0;entryDy=0;" parent="1" source="BvTbpLr7_MJ0B1_TZpMT-192" target="BvTbpLr7_MJ0B1_TZpMT-201" edge="1">
          <mxGeometry relative="1" as="geometry">
            <mxPoint x="1079" y="2074" as="sourcePoint" />
            <mxPoint x="1042" y="2250" as="targetPoint" />
          </mxGeometry>
        </mxCell>
        <mxCell id="BvTbpLr7_MJ0B1_TZpMT-205" value="average_score" style="ellipse;whiteSpace=wrap;html=1;align=center;" parent="1" vertex="1">
          <mxGeometry x="1974" y="2258" width="100" height="40" as="geometry" />
        </mxCell>
        <mxCell id="BvTbpLr7_MJ0B1_TZpMT-206" value="" style="endArrow=none;html=1;rounded=0;entryX=0;entryY=1;entryDx=0;entryDy=0;exitX=0.5;exitY=0;exitDx=0;exitDy=0;" parent="1" source="BvTbpLr7_MJ0B1_TZpMT-205" target="BvTbpLr7_MJ0B1_TZpMT-99" edge="1">
          <mxGeometry relative="1" as="geometry">
            <mxPoint x="2193" y="2290" as="sourcePoint" />
            <mxPoint x="1987" y="2170" as="targetPoint" />
          </mxGeometry>
        </mxCell>
        <mxCell id="BvTbpLr7_MJ0B1_TZpMT-207" value="send" style="shape=rhombus;perimeter=rhombusPerimeter;whiteSpace=wrap;html=1;align=center;" parent="1" vertex="1">
          <mxGeometry x="905" y="1704.3600000000001" width="120" height="60" as="geometry" />
        </mxCell>
        <mxCell id="BvTbpLr7_MJ0B1_TZpMT-208" value="" style="endArrow=none;html=1;rounded=0;entryX=0.75;entryY=1;entryDx=0;entryDy=0;exitX=0.5;exitY=0;exitDx=0;exitDy=0;" parent="1" source="BvTbpLr7_MJ0B1_TZpMT-207" target="BvTbpLr7_MJ0B1_TZpMT-5" edge="1">
          <mxGeometry relative="1" as="geometry">
            <mxPoint x="1161" y="1536" as="sourcePoint" />
            <mxPoint x="1321" y="1536" as="targetPoint" />
          </mxGeometry>
        </mxCell>
        <mxCell id="BvTbpLr7_MJ0B1_TZpMT-209" value="1" style="resizable=0;html=1;whiteSpace=wrap;align=right;verticalAlign=bottom;" parent="BvTbpLr7_MJ0B1_TZpMT-208" connectable="0" vertex="1">
          <mxGeometry x="1" relative="1" as="geometry">
            <mxPoint y="18" as="offset" />
          </mxGeometry>
        </mxCell>
        <mxCell id="BvTbpLr7_MJ0B1_TZpMT-210" value="" style="endArrow=none;html=1;rounded=0;exitX=0.5;exitY=1;exitDx=0;exitDy=0;entryX=0.5;entryY=0;entryDx=0;entryDy=0;" parent="1" source="BvTbpLr7_MJ0B1_TZpMT-207" target="BvTbpLr7_MJ0B1_TZpMT-192" edge="1">
          <mxGeometry relative="1" as="geometry">
            <mxPoint x="1317" y="1860" as="sourcePoint" />
            <mxPoint x="1477" y="1860" as="targetPoint" />
          </mxGeometry>
        </mxCell>
        <mxCell id="BvTbpLr7_MJ0B1_TZpMT-211" value="N" style="resizable=0;html=1;whiteSpace=wrap;align=right;verticalAlign=bottom;" parent="BvTbpLr7_MJ0B1_TZpMT-210" connectable="0" vertex="1">
          <mxGeometry x="1" relative="1" as="geometry" />
        </mxCell>
        <mxCell id="BvTbpLr7_MJ0B1_TZpMT-212" value="recept" style="shape=rhombus;perimeter=rhombusPerimeter;whiteSpace=wrap;html=1;align=center;" parent="1" vertex="1">
          <mxGeometry x="1388.5" y="2046" width="120" height="60" as="geometry" />
        </mxCell>
        <mxCell id="BvTbpLr7_MJ0B1_TZpMT-213" value="" style="endArrow=none;html=1;rounded=0;exitX=1;exitY=0.5;exitDx=0;exitDy=0;entryX=0;entryY=0.5;entryDx=0;entryDy=0;" parent="1" source="BvTbpLr7_MJ0B1_TZpMT-192" target="BvTbpLr7_MJ0B1_TZpMT-212" edge="1">
          <mxGeometry relative="1" as="geometry">
            <mxPoint x="1389" y="1968" as="sourcePoint" />
            <mxPoint x="1549" y="1968" as="targetPoint" />
          </mxGeometry>
        </mxCell>
        <mxCell id="BvTbpLr7_MJ0B1_TZpMT-214" value="" style="endArrow=none;html=1;rounded=0;entryX=0;entryY=0.5;entryDx=0;entryDy=0;exitX=1;exitY=0.5;exitDx=0;exitDy=0;" parent="1" source="BvTbpLr7_MJ0B1_TZpMT-212" target="BvTbpLr7_MJ0B1_TZpMT-99" edge="1">
          <mxGeometry relative="1" as="geometry">
            <mxPoint x="1389" y="1968" as="sourcePoint" />
            <mxPoint x="1549" y="1968" as="targetPoint" />
          </mxGeometry>
        </mxCell>
        <mxCell id="BvTbpLr7_MJ0B1_TZpMT-218" value="TypeOfVehicle" style="ellipse;whiteSpace=wrap;html=1;align=center;" parent="1" vertex="1">
          <mxGeometry x="2025" y="1476" width="116.33" height="48" as="geometry" />
        </mxCell>
        <mxCell id="BvTbpLr7_MJ0B1_TZpMT-219" value="" style="endArrow=none;html=1;rounded=0;exitX=0;exitY=1;exitDx=0;exitDy=0;entryX=0.5;entryY=0;entryDx=0;entryDy=0;" parent="1" source="BvTbpLr7_MJ0B1_TZpMT-114" target="BvTbpLr7_MJ0B1_TZpMT-218" edge="1">
          <mxGeometry relative="1" as="geometry">
            <mxPoint x="1991" y="1381" as="sourcePoint" />
            <mxPoint x="2226" y="1488" as="targetPoint" />
          </mxGeometry>
        </mxCell>
        <mxCell id="5lXkPZ3c1GGT9rqtBjPK-1" value="Status" style="ellipse;whiteSpace=wrap;html=1;align=center;" parent="1" vertex="1">
          <mxGeometry x="2318.67" y="1464" width="116.33" height="48" as="geometry" />
        </mxCell>
        <mxCell id="5lXkPZ3c1GGT9rqtBjPK-2" value="" style="endArrow=none;html=1;rounded=0;exitX=0.5;exitY=1;exitDx=0;exitDy=0;entryX=0;entryY=0.5;entryDx=0;entryDy=0;" parent="1" source="BvTbpLr7_MJ0B1_TZpMT-114" target="5lXkPZ3c1GGT9rqtBjPK-1" edge="1">
          <mxGeometry relative="1" as="geometry">
            <mxPoint x="1991" y="1381" as="sourcePoint" />
            <mxPoint x="2226" y="1488" as="targetPoint" />
          </mxGeometry>
        </mxCell>
      </root>
    </mxGraphModel>
  </diagram>
</mxfile>
